<svg xmlns="http://www.w3.org/2000/svg" width="28.849" height="55.808" viewBox="0 0 28.849 55.808"><g transform="translate(13893.556 -1979.168)"><path d="M-13865.226,1993.452c-.134.8-.812,1.25-1.43,1.7-.725.522-1.189-.12-1.625-.553-3.385-3.364-6.794-6.706-10.107-10.139-.926-.958-1.43-.958-2.347,0-3.191,3.354-6.491,6.6-9.723,9.919-.787.807-1.417,1.291-2.448.24-.931-.951-.823-1.591.058-2.477q6.025-6.061,11.96-12.212c.956-.992,1.638-1.028,2.623-.023,4.04,4.12,8.144,8.175,12.219,12.26A2.069,2.069,0,0,1-13865.226,1993.452Z" transform="translate(0.002 0)" fill="gray"/><path d="M-13890.64,2071.873c.9.064,1.3.705,1.791,1.2,3.092,3.148,6.229,6.256,9.224,9.5,1.143,1.237,1.789,1.063,2.857-.051,3.155-3.287,6.432-6.455,9.635-9.695.791-.8,1.427-1.275,2.45-.223.931.957.812,1.6-.074,2.473q-6.158,6.075-12.225,12.238c-.883.9-1.512,1-2.445.043-4.016-4.138-8.094-8.215-12.14-12.324-.434-.44-1.09-.891-.7-1.62A3.719,3.719,0,0,1-13890.64,2071.873Z" transform="translate(-0.67 -53.052)" fill="gray"/></g></svg>