<svg xmlns="http://www.w3.org/2000/svg" width="207.221" height="63" viewBox="0 0 207.221 63"><g transform="translate(13298.283 -780.838)"><path d="M-13290.491,816.611h18.761v-6.754h-18.761v-8.2h20.376v-6.7h-28.168v38.328h29.092v-6.811h-21.3Z" transform="translate(0 -2.904)" fill="#f9f9f9"/><path d="M-13226.484,841.267a2.778,2.778,0,0,1-2.482,1.212,3.438,3.438,0,0,1-2.742-1.1q-.952-1.1-.951-4.041V807.268h-7.215l-.059,3.464a8.663,8.663,0,0,0-7.908-4.214,11.7,11.7,0,0,0-4.965,1.039,10.852,10.852,0,0,0-3.867,3,14.536,14.536,0,0,0-2.539,4.791,20.558,20.558,0,0,0-.924,6.407,21.172,21.172,0,0,0,.779,5.917,13.984,13.984,0,0,0,2.279,4.647,10.3,10.3,0,0,0,3.666,3.031,11.019,11.019,0,0,0,4.936,1.068,9.887,9.887,0,0,0,8.313-4.272v5.138a13.7,13.7,0,0,0,.809,4.79,11.048,11.048,0,0,0,2.25,3.752,10.229,10.229,0,0,0,3.4,2.425,10.461,10.461,0,0,0,4.271.866,10.774,10.774,0,0,0,4.271-.837,10.038,10.038,0,0,0,3.406-2.367,11.171,11.171,0,0,0,2.281-3.723,13.879,13.879,0,0,0,.838-4.964h-7.043A7.566,7.566,0,0,1-13226.484,841.267Zm-19.568-11.255q-6.466,0-6.465-8.774a10.1,10.1,0,0,1,1.789-6.205,5.522,5.522,0,0,1,4.617-2.4,5.6,5.6,0,0,1,4.531,2.251,9.075,9.075,0,0,1,1.818,5.887Q-13239.762,830.012-13246.053,830.011Z" transform="translate(-7.842 -5.279)" fill="#f9f9f9"/><path d="M-13204.013,823.856a7.152,7.152,0,0,1-1.471,4.647,5.279,5.279,0,0,1-4.358,1.818q-4.792,0-4.791-5.311V807.462h-7.5v18.7a11.948,11.948,0,0,0,.722,4.272,10.1,10.1,0,0,0,1.991,3.291,8.661,8.661,0,0,0,3.03,2.135,9.851,9.851,0,0,0,3.9.751,9.635,9.635,0,0,0,8.831-4.733v3.982h7.1v-28.4h-7.447Z" transform="translate(-15.654 -5.473)" fill="#f9f9f9"/><rect width="7.504" height="28.4" transform="translate(-13208.757 801.989)" fill="#f9f9f9"/><path d="M-13148.8,808.943a7.942,7.942,0,0,0-2.973-1.818,11.279,11.279,0,0,0-3.752-.606,11.4,11.4,0,0,0-5.656,1.241,9.119,9.119,0,0,0-3.521,3.665v-4.156h-7.158v28.4h7.5V819.39q0-6.522,5.83-6.523a5.033,5.033,0,0,1,3.752,1.155q1.1,1.155,1.1,4.444v17.2h7.561V815.984a10.68,10.68,0,0,0-.721-4.069A8.751,8.751,0,0,0-13148.8,808.943Z" transform="translate(-25.99 -5.279)" fill="#f9f9f9"/><path d="M-13107.074,821.468a17.941,17.941,0,0,0-1.011-6.177,13.094,13.094,0,0,0-2.886-4.7,12.986,12.986,0,0,0-4.531-3,15.982,15.982,0,0,0-6-1.068,16.364,16.364,0,0,0-6.089,1.068,13,13,0,0,0-4.589,3.031,13.145,13.145,0,0,0-2.915,4.733,17.74,17.74,0,0,0-1.011,6.119,18.035,18.035,0,0,0,.981,6.061,13.047,13.047,0,0,0,2.857,4.733,12.941,12.941,0,0,0,4.589,3.059,16.37,16.37,0,0,0,6.176,1.1,16.053,16.053,0,0,0,5.975-1.068,12.731,12.731,0,0,0,4.561-3.031,13.428,13.428,0,0,0,2.886-4.7A17.691,17.691,0,0,0-13107.074,821.468Zm-14.432,8.658q-6.869,0-6.868-8.658,0-8.6,6.868-8.6t6.869,8.6Q-13114.637,830.127-13121.506,830.127Z" transform="translate(-33.339 -5.279)" fill="#f9f9f9"/><path d="M-13075.488,807.462h-8.717l-4.848,8.255-4.791-8.255h-9.062l9.234,13.911-9.523,14.488h9l4.85-8.543,4.965,8.543h9.178l-9.7-14.488Z" transform="translate(-40.106 -5.473)" fill="#f9f9f9"/><path d="M-13054.4,829.636a6.28,6.28,0,0,1-3.262.837,5.709,5.709,0,0,1-4.473-1.905,8.1,8.1,0,0,1-1.876-5.137h19.567q0-8.484-3.377-12.7t-9.956-4.214a15.709,15.709,0,0,0-5.83,1.01,11.588,11.588,0,0,0-4.3,2.916,12.831,12.831,0,0,0-2.684,4.56,18,18,0,0,0-.924,5.945q0,15.47,14.2,15.47a13.083,13.083,0,0,0,7.851-2.367,12.46,12.46,0,0,0,4.618-6.754h-7.735A3.786,3.786,0,0,1-13054.4,829.636Zm-7.5-15.527a5.324,5.324,0,0,1,3.9-1.645,6.259,6.259,0,0,1,2.136.375,5.177,5.177,0,0,1,1.848,1.154,5.764,5.764,0,0,1,1.3,1.963,7.923,7.923,0,0,1,.549,2.742h-11.6A7.018,7.018,0,0,1-13061.9,814.109Z" transform="translate(-46.619 -5.279)" fill="#f9f9f9"/><path d="M-13183.027,797.539h0a8.35,8.35,0,0,1,8.352-8.35h0a8.351,8.351,0,0,1-8.352-8.351h0a8.351,8.351,0,0,1-8.35,8.351h0A8.35,8.35,0,0,1-13183.027,797.539Z" transform="translate(-21.978)" fill="#f9f9f9"/></g></svg>
